<?xml version="1.0" encoding="utf-8"?>
<!DOCTYPE svg PUBLIC "-//W3C//DTD SVG 20010904//EN" "http://www.w3.org/TR/2001/REC-SVG-20010904/DTD/svg10.dtd">
<svg version="1.0" xmlns="http://www.w3.org/2000/svg" width="794pt" height="1123pt" viewBox="0 0 794 1123" style="" preserveAspectRatio="xMidYMid meet">
<g fill="#4CCAFAFF" stroke="#4CCAFAFF">
<path d="M 388.009 238.694 C 388.014 242.987 389.587 284.975 391.503 332.000 C 393.419 379.025 394.990 420.529 394.994 424.231 C 395.001 431.503 394.945 431.567 388.064 432.256 L 385.627 432.500 381.435 382.500 C 377.195 331.925 374.182 301.121 373.342 299.750 C 373.089 299.338 371.879 299.000 370.653 299.000 C 368.375 299.000 358.683 309.385 323.250 349.796 C 308.107 367.067 308.000 367.222 308.000 371.999 C 308.000 375.204 311.672 389.209 319.000 413.955 C 325.050 434.385 330.000 451.694 330.000 452.421 C 330.000 453.148 324.383 458.783 317.517 464.945 C 289.031 490.510 268.320 519.212 260.596 543.828 C 256.819 555.868 255.180 567.455 253.499 594.000 C 250.261 645.157 248.167 654.029 234.664 673.789 C 231.549 678.347 229.000 682.291 229.000 682.552 C 229.000 682.813 230.590 682.363 232.532 681.551 C 238.187 679.188 249.776 670.756 263.113 659.299 C 292.580 633.988 324.261 612.826 357.650 596.153 C 391.117 579.441 410.280 574.180 441.642 573.094 L 458.784 572.500 454.939 566.147 C 450.623 559.014 447.388 549.997 446.431 542.430 C 445.648 536.232 447.299 524.948 450.076 517.526 C 454.306 506.221 467.585 495.784 479.541 494.368 C 497.088 492.290 517.921 508.207 524.384 528.629 C 525.054 530.744 525.030 530.743 520.359 528.379 C 511.708 523.999 499.263 525.537 492.657 531.803 C 485.533 538.560 482.058 552.993 485.014 563.548 C 486.812 569.971 493.688 577.279 501.332 580.890 C 511.462 585.676 517.292 586.487 541.000 586.407 C 577.294 586.285 602.997 581.104 615.817 571.326 C 619.513 568.507 622.943 562.058 622.978 557.862 C 623.021 552.751 617.883 537.376 612.498 526.500 C 593.997 489.134 551.702 454.951 504.184 438.961 C 497.758 436.799 491.707 435.023 490.738 435.015 C 489.279 435.003 489.065 434.356 489.491 431.250 C 490.412 424.547 493.000 394.360 493.000 390.327 C 493.000 386.651 492.150 385.515 479.628 372.451 L 466.257 358.500 465.504 393.632 L 464.752 428.763 456.126 428.250 C 451.382 427.967 447.327 427.584 447.115 427.399 C 446.784 427.110 450.136 340.551 451.429 316.000 C 451.676 311.325 451.567 306.756 451.189 305.848 C 450.554 304.324 444.013 296.536 402.766 248.194 L 388.000 230.888 388.009 238.694 M 351.857 375.253 C 353.704 386.939 355.440 397.511 355.715 398.746 C 356.193 400.894 356.004 400.965 351.357 400.376 C 348.686 400.038 344.939 399.460 343.030 399.092 L 339.560 398.423 336.299 385.462 C 334.506 378.333 333.030 371.714 333.019 370.753 C 333.002 369.151 346.445 353.996 347.877 354.003 C 348.220 354.005 350.011 363.567 351.857 375.253 M 422.590 307.750 L 435.119 318.500 434.441 326.000 C 434.068 330.125 433.468 334.048 433.109 334.719 C 432.666 335.545 428.684 333.353 420.728 327.903 L 409.000 319.870 409.000 308.435 C 409.000 302.146 409.239 297.000 409.530 297.000 C 409.822 297.000 415.698 301.838 422.590 307.750 M 353.185 411.050 C 355.840 411.765 357.126 412.737 357.465 414.286 C 358.902 420.848 361.933 439.400 361.620 439.714 C 361.419 439.915 358.573 439.334 355.297 438.423 L 349.339 436.766 346.337 422.792 L 343.335 408.817 346.363 409.423 C 348.028 409.756 351.099 410.488 353.185 411.050 "/></g>
<g fill="#003348FF" stroke="#003348FF">
<path d="M 641.050 630.311 C 638.110 633.897 627.772 640.699 619.500 644.491 C 595.085 655.681 572.168 659.799 540.500 658.685 C 515.113 657.792 504.386 655.619 455.265 641.418 C 427.379 633.357 418.145 631.371 401.734 629.910 C 392.285 629.068 385.722 629.062 376.468 629.886 C 344.509 632.733 321.163 641.311 273.792 667.615 C 252.842 679.249 240.040 685.106 226.693 689.164 C 219.711 691.287 219.588 691.380 222.500 692.316 C 224.150 692.847 233.600 693.302 243.500 693.326 C 262.474 693.374 260.897 693.594 291.500 686.612 C 326.472 678.633 366.332 677.331 390.137 683.391 C 395.286 684.702 406.363 688.300 414.750 691.387 C 423.138 694.474 436.863 699.524 445.250 702.608 C 475.711 713.810 496.564 717.754 519.500 716.654 C 556.283 714.889 589.310 700.701 614.060 676.030 C 624.805 665.320 632.803 653.906 639.563 639.636 C 644.494 629.225 645.111 625.358 641.050 630.311 "/></g>
<g fill="#E7E401FF" stroke="#E7E401FF">
<path d="M 649.500 571.833 C 637.950 577.719 623.775 584.258 618.000 586.363 C 573.404 602.617 530.302 606.114 492.558 596.540 C 481.294 593.682 469.551 588.228 465.451 583.949 C 462.983 581.373 461.923 581.001 457.063 581.008 C 445.211 581.026 422.702 584.322 405.000 588.634 C 381.106 594.453 360.367 602.755 343.500 613.254 C 333.156 619.692 320.076 630.192 321.719 630.740 C 322.330 630.943 330.407 629.315 339.666 627.121 C 370.745 619.757 372.648 619.495 394.500 619.558 C 424.734 619.645 442.523 622.574 467.000 631.496 C 487.819 639.084 505.866 644.711 517.438 647.222 C 531.568 650.287 561.075 650.262 578.178 647.170 C 598.891 643.425 617.864 636.213 632.319 626.588 C 651.274 613.968 667.883 591.321 672.478 571.832 C 674.479 563.342 674.429 560.984 672.250 561.065 C 671.288 561.101 661.050 565.946 649.500 571.833 "/></g>
<g fill="#006018FF" stroke="#006018FF">
<path d="M 330.000 688.622 C 315.050 690.482 282.877 698.868 283.059 700.856 C 283.146 701.803 293.930 710.614 306.666 720.145 C 339.113 744.425 373.195 760.548 406.082 767.176 C 422.555 770.496 452.446 770.525 468.665 767.236 C 494.076 762.083 512.587 753.640 525.113 741.489 C 530.008 736.740 535.732 728.399 534.761 727.428 C 534.497 727.163 530.279 727.405 525.390 727.965 C 498.475 731.049 472.339 726.970 443.223 715.143 C 435.125 711.854 422.413 706.678 414.974 703.642 C 389.270 693.151 371.317 689.040 349.000 688.536 C 340.475 688.344 331.925 688.382 330.000 688.622 "/></g>
<g fill="#1B1918FF" stroke="#1B1918FF">
<path d="M 331.000 813.000 L 331.000 836.000 334.500 836.000 L 338.000 836.000 338.000 826.500 L 338.000 817.000 341.844 817.000 C 345.562 817.000 345.910 817.314 352.457 826.548 L 359.225 836.097 364.237 835.798 L 369.248 835.500 362.124 826.291 C 358.206 821.226 355.000 816.838 355.000 816.541 C 355.000 816.243 355.668 816.000 356.484 816.000 C 357.301 816.000 359.438 814.687 361.234 813.082 C 364.236 810.400 364.500 809.678 364.500 804.155 C 364.500 792.915 360.130 790.146 342.250 790.056 L 331.000 790.000 331.000 813.000 "/></g>
<g fill="#1B1918FF" stroke="#1B1918FF">
<path d="M 376.000 813.000 L 376.000 836.000 392.500 836.000 L 409.000 836.000 409.000 832.500 L 409.000 829.000 396.500 829.000 L 384.000 829.000 384.000 822.500 L 384.000 816.000 395.000 816.000 L 406.000 816.000 406.000 812.500 L 406.000 809.000 395.000 809.000 L 384.000 809.000 384.000 803.500 L 384.000 798.000 396.000 798.000 L 408.000 798.000 408.000 794.000 L 408.000 790.000 392.000 790.000 L 376.000 790.000 376.000 813.000 "/></g>
<g fill="#1B1918FF" stroke="#1B1918FF">
<path d="M 484.000 790.183 C 473.504 791.967 469.312 804.877 477.101 811.431 C 478.768 812.835 482.691 814.682 485.817 815.537 C 497.755 818.801 500.799 821.605 497.640 826.427 C 495.969 828.977 490.320 830.533 486.706 829.439 C 483.600 828.497 480.000 824.979 480.000 822.885 C 480.000 820.353 478.670 819.870 475.115 821.110 C 471.407 822.402 471.233 824.105 474.266 829.396 C 477.236 834.576 481.987 837.000 489.169 837.000 C 498.814 837.000 504.184 833.743 506.067 826.750 C 508.227 818.730 503.403 812.257 493.183 809.463 C 484.283 807.030 481.000 805.293 481.000 803.016 C 481.000 799.899 484.549 797.000 488.365 797.000 C 491.954 797.000 497.000 800.222 497.000 802.514 C 497.000 804.648 498.499 805.071 501.885 803.890 C 505.507 802.627 505.788 800.804 503.050 796.314 C 499.762 790.922 492.814 788.686 484.000 790.183 "/></g>
<g fill="#1B1918FF" stroke="#1B1918FF">
<path d="M 516.000 813.000 L 516.000 836.000 519.500 836.000 L 523.000 836.000 523.000 826.000 L 523.000 816.000 532.500 816.000 L 542.000 816.000 542.000 826.000 L 542.000 836.000 546.000 836.000 L 550.000 836.000 550.000 813.000 L 550.000 790.000 546.000 790.000 L 542.000 790.000 542.000 799.500 L 542.000 809.000 532.500 809.000 L 523.000 809.000 523.000 799.500 L 523.000 790.000 519.500 790.000 L 516.000 790.000 516.000 813.000 "/></g>
<g fill="#1B1918FF" stroke="#1B1918FF">
<path d="M 418.000 813.000 L 418.000 836.000 432.000 836.000 L 446.000 836.000 446.000 832.500 L 446.000 829.000 435.500 829.000 L 425.000 829.000 425.000 809.500 L 425.000 790.000 421.500 790.000 L 418.000 790.000 418.000 813.000 "/></g>
<g fill="#1B1918FF" stroke="#1B1918FF">
<path d="M 455.000 813.000 L 455.000 836.000 458.500 836.000 L 462.000 836.000 462.000 813.000 L 462.000 790.000 458.500 790.000 L 455.000 790.000 455.000 813.000 "/></g>
</svg>
